# xmcd
#
# Track frame offsets:
#	150
#	20320
#	38467
#	54170
#	68995
#	88625
#	105375
#	123902
#	145900
#	160110
#	180785
#	197925
#	213057
#	236535
#	256772
#	272410
#
# Disc length: 3883 seconds
#
# Revision: 1
# Processed by: cddbd v1.5.1PL0 Copyright (c) Steve Scherf et al.
# Submitted via: CDex 1.50Beta5
#
DISCID=c00f2910
DTITLE=ブレッド&バター - 決定版ブレッド&バター・ベスト・セレクション
DYEAR=1990
DGENRE=Pop
TTITLE0=ピンク・シャドウ
TTITLE1=マリエ
TTITLE2=渚に行こう
TTITLE3=ゆううつ
TTITLE4=あの頃のまま
TTITLE5=青い地平線 Blue Horizon
TTITLE6=ラスト・レター
TTITLE7=レット・アス・ラブ
TTITLE8=ホールド・オン
TTITLE9=マンデイ・モーニング
TTITLE10=ホテル・パシフィック
TTITLE11=湘南ガール
TTITLE12=第2土曜日
TTITLE13=お食事どこでする?
TTITLE14=ステイ・ウィズ・ミー・トゥナイト
TTITLE15=別れのあとの憩い
EXTD=
EXTT0=
EXTT1=
EXTT2=
EXTT3=
EXTT4=
EXTT5=
EXTT6=
EXTT7=
EXTT8=
EXTT9=
EXTT10=
EXTT11=
EXTT12=
EXTT13=
EXTT14=
EXTT15=
PLAYORDER=
